<svg viewBox="0 0 800 400" xmlns="http://www.w3.org/2000/svg">
  <defs>
    <linearGradient id="bg2" x1="0%" y1="0%" x2="100%" y2="100%">
      <stop offset="0%" style="stop-color:#111827"/>
      <stop offset="100%" style="stop-color:#1f2937"/>
    </linearGradient>
  </defs>
  <rect width="800" height="400" fill="url(#bg2)"/>
  <!-- Chart background -->
  <rect x="80" y="60" width="640" height="260" rx="12" fill="#1f2937"/>
  <!-- Grid lines -->
  <line x1="100" y1="100" x2="700" y2="100" stroke="#374151" stroke-width="1"/>
  <line x1="100" y1="150" x2="700" y2="150" stroke="#374151" stroke-width="1"/>
  <line x1="100" y1="200" x2="700" y2="200" stroke="#374151" stroke-width="1"/>
  <line x1="100" y1="250" x2="700" y2="250" stroke="#374151" stroke-width="1"/>
  <!-- Candlesticks before news -->
  <rect x="120" y="160" width="12" height="50" fill="#ef4444"/>
  <rect x="145" y="170" width="12" height="40" fill="#ef4444"/>
  <rect x="170" y="150" width="12" height="60" fill="#10b981"/>
  <rect x="195" y="140" width="12" height="70" fill="#10b981"/>
  <rect x="220" y="155" width="12" height="55" fill="#ef4444"/>
  <rect x="245" y="145" width="12" height="65" fill="#10b981"/>
  <rect x="270" y="160" width="12" height="50" fill="#ef4444"/>
  <rect x="295" y="150" width="12" height="60" fill="#10b981"/>
  <rect x="320" y="165" width="12" height="45" fill="#ef4444"/>
  <rect x="345" y="155" width="12" height="55" fill="#10b981"/>
  <!-- NEWS event marker -->
  <rect x="365" y="40" width="70" height="28" rx="6" fill="#ef4444"/>
  <text x="400" y="60" fill="white" font-size="12" font-weight="bold" text-anchor="middle" font-family="system-ui">📰 NFP</text>
  <line x1="400" y1="68" x2="400" y2="280" stroke="#ef4444" stroke-width="2" stroke-dasharray="5,5"/>
  <!-- Spike on news -->
  <rect x="390" y="80" width="20" height="180" fill="#10b981"/>
  <!-- Candlesticks after spike -->
  <rect x="420" y="100" width="12" height="90" fill="#10b981"/>
  <rect x="445" y="120" width="12" height="70" fill="#10b981"/>
  <rect x="470" y="130" width="12" height="60" fill="#ef4444"/>
  <rect x="495" y="140" width="12" height="50" fill="#ef4444"/>
  <rect x="520" y="150" width="12" height="40" fill="#10b981"/>
  <rect x="545" y="145" width="12" height="45" fill="#10b981"/>
  <rect x="570" y="155" width="12" height="35" fill="#ef4444"/>
  <rect x="595" y="150" width="12" height="40" fill="#10b981"/>
  <rect x="620" y="160" width="12" height="30" fill="#ef4444"/>
  <rect x="645" y="155" width="12" height="35" fill="#10b981"/>
  <!-- Warning zones -->
  <rect x="360" y="280" width="80" height="24" rx="4" fill="#ef4444" opacity="0.3"/>
  <text x="400" y="296" fill="#ef4444" font-size="10" text-anchor="middle" font-family="system-ui">NO TRADE ZONE</text>
  <!-- Title -->
  <text x="400" y="360" fill="white" font-size="28" font-weight="bold" text-anchor="middle" font-family="system-ui">News Trading Rules Explained</text>
</svg>
